<svg width="24" height="16" viewBox="0 0 24 16" fill="none" xmlns="http://www.w3.org/2000/svg">
<path d="M12.001 0.799999C8.801 0.799999 6.801 2.4 6.001 5.6C7.201 4 8.601 3.4 10.201 3.8C11.114 4.028 11.766 4.69 12.489 5.424C13.666 6.618 15.027 8 18.001 8C21.201 8 23.201 6.4 24.001 3.2C22.801 4.8 21.401 5.4 19.801 5C18.888 4.772 18.236 4.11 17.513 3.376C16.337 2.182 14.976 0.799999 12.001 0.799999ZM6.001 8C2.801 8 0.800999 9.6 0.000999451 12.8C1.201 11.2 2.601 10.6 4.201 11C5.114 11.228 5.766 11.89 6.489 12.624C7.666 13.818 9.027 15.2 12.001 15.2C15.201 15.2 17.201 13.6 18.001 10.4C16.801 12 15.401 12.6 13.801 12.2C12.888 11.972 12.236 11.31 11.513 10.576C10.337 9.382 8.976 8 6.001 8Z" fill="#06B6D4"/>
</svg>
